<svg xmlns="http://www.w3.org/2000/svg" id="SvgjsSvg13875" version="1.1" xmlns:xlink="http://www.w3.org/1999/xlink" xmlns:svgjs="http://svgjs.com/svgjs"><defs id="SvgjsDefs13876"></defs><g id="SvgjsG13877" transform="translate(328, 328) scale(34.4)" opacity="1"><defs id="SvgjsDefs4578"></defs><g id="SvgjsG4579" transform="scale(0.21645021645021645)" opacity="1"><g id="SvgjsG4580" class="8yQ2G3ZXq" transform="translate(0, 0) scale(0.6163295944610115)" light-content="false" non-strokable="false" fill="#ffcb00"><path d="M0 0h100v100H0z"></path></g><g id="SvgjsG4581" class="3izZYixrmf" transform="translate(13.21178242307681, 13.211606372582793) scale(0.3521009880192357)" light-content="true" non-strokable="false" fill="#ffffff"><path d="M50 0c18.617 0 33.777 15.16 33.777 33.777 0 16.488-8.512 25.531-17.555 40.16L49.999 99.999 33.776 73.937c-9.043-14.629-17.555-23.672-17.555-40.16C16.221 15.16 31.381 0 49.998 0zm0 13.828c10.371 0 18.617 8.512 18.617 18.617 0 10.371-8.246 18.617-18.617 18.617s-18.617-8.246-18.617-18.617c0-10.105 8.246-18.617 18.617-18.617z" fill-rule="evenodd"></path></g><g id="SvgjsG4582" class="text" transform="translate(338.9709880115442, 51.7722822707188) scale(1)" light-content="false" fill="#d3222a"><path d="M-112.06 -32.47L-118.92 0L-106.77 0C-102.62 0 -99.42 -0.93 -97.16 -2.78C-94.91 -4.63 -93.78 -7.25 -93.78 -10.64C-93.78 -12.19 -94.16 -13.51 -94.93 -14.58C-95.7 -15.65 -96.74 -16.41 -98.04 -16.83L-98.04 -17.01C-93.64 -18.33 -91.45 -21.12 -91.45 -25.39C-91.45 -27.67 -92.28 -29.42 -93.93 -30.64C-95.59 -31.86 -98.03 -32.47 -101.24 -32.47ZM-106.02 -20.01L-104.68 -25.83L-103.28 -25.83C-101.4 -25.83 -100.46 -25.07 -100.46 -23.56C-100.46 -22.32 -100.8 -21.42 -101.46 -20.85C-102.13 -20.29 -103.11 -20.01 -104.42 -20.01ZM-107.33 -13.59L-105.82 -13.59C-104.59 -13.59 -103.73 -13.34 -103.24 -12.84C-102.75 -12.33 -102.51 -11.57 -102.51 -10.55C-102.51 -9.47 -102.93 -8.57 -103.78 -7.85C-104.63 -7.13 -105.7 -6.77 -106.97 -6.77L-108.79 -6.77Z M-90.14 0L-81.32 0L-74.46 -32.47L-83.27 -32.47Z M-55.62 -6.09L-55.4 0L-46.94 0L-49.67 -32.47L-60.84 -32.47L-77.37 0L-68.35 0L-65.57 -6.09ZM-62.4 -13.01L-57.58 -23.56C-57.03 -24.75 -56.58 -25.98 -56.22 -27.25C-56.28 -26.42 -56.31 -25.45 -56.31 -24.34L-56.27 -22.43L-55.89 -13.01Z M-35.9 -32.47L-38.9 -18.52L-44.98 -15.28L-42.21 -9.91L-40.48 -10.77L-42.76 0L-23.46 0L-21.98 -7.08L-32.57 -7.08L-30.84 -15.37L-22.46 -19.74L-25.37 -25.16L-29.19 -23.14L-27.2 -32.47Z M-6.27 -20.43L-8.27 -32.47L-17.22 -32.47L-11.96 -12.59L-14.62 0L-5.94 0L-3.25 -12.59L10.34 -32.47L0.66 -32.47Z M28.31 -9.97C28.31 -11.81 27.88 -13.44 27.04 -14.86C26.2 -16.28 24.9 -17.63 23.15 -18.92C21.76 -19.97 20.82 -20.81 20.32 -21.44C19.83 -22.07 19.58 -22.75 19.58 -23.48C19.58 -24.27 19.83 -24.88 20.34 -25.3C20.85 -25.71 21.58 -25.92 22.53 -25.92C24.31 -25.92 26.46 -25.27 28.99 -23.96L31.99 -30.56C29.16 -32.14 25.98 -32.94 22.44 -32.94C20.25 -32.94 18.27 -32.51 16.5 -31.66C14.73 -30.81 13.36 -29.61 12.39 -28.06C11.42 -26.51 10.94 -24.77 10.94 -22.83C10.94 -21.1 11.33 -19.51 12.12 -18.06C12.9 -16.61 14.16 -15.18 15.89 -13.79C17.31 -12.61 18.19 -11.84 18.51 -11.49C18.84 -11.15 19.09 -10.8 19.27 -10.45C19.44 -10.1 19.53 -9.73 19.53 -9.33C19.53 -8.48 19.25 -7.83 18.69 -7.37C18.13 -6.91 17.3 -6.68 16.2 -6.68C14.9 -6.68 13.44 -6.95 11.84 -7.48C10.23 -8.02 8.81 -8.68 7.56 -9.46L7.56 -1.69C8.61 -0.99 9.86 -0.46 11.32 -0.1C12.77 0.26 14.31 0.44 15.94 0.44C19.83 0.44 22.86 -0.47 25.04 -2.3C27.22 -4.13 28.31 -6.68 28.31 -9.97Z M45.45 0L50.71 -25.3L57.78 -25.3L59.35 -32.47L36.52 -32.47L34.99 -25.3L42.03 -25.3L36.77 0Z M75.63 -32.98C72.2 -32.98 69.17 -32.12 66.54 -30.39C63.91 -28.67 61.83 -26.16 60.31 -22.88C58.78 -19.59 58.02 -15.98 58.02 -12.06C58.02 -8.14 59.11 -5.07 61.27 -2.86C63.44 -0.66 66.52 0.44 70.5 0.44C73.92 0.44 76.93 -0.43 79.52 -2.17C82.11 -3.91 84.14 -6.41 85.62 -9.67C87.09 -12.94 87.83 -16.54 87.83 -20.48C87.83 -24.42 86.76 -27.48 84.62 -29.68C82.48 -31.88 79.48 -32.98 75.63 -32.98ZM79.05 -20.39C79.05 -17.92 78.71 -15.64 78.02 -13.55C77.33 -11.46 76.38 -9.8 75.18 -8.57C73.97 -7.34 72.66 -6.73 71.26 -6.73C68.3 -6.73 66.82 -8.52 66.82 -12.1C66.82 -14.38 67.18 -16.61 67.92 -18.79C68.65 -20.97 69.63 -22.68 70.86 -23.92C72.09 -25.16 73.43 -25.78 74.9 -25.78C76.25 -25.78 77.28 -25.31 77.99 -24.35C78.7 -23.4 79.05 -22.08 79.05 -20.39Z M116.79 0L110.79 -17.5L123.03 -32.47L112.83 -32.47L106.24 -24.25C105.62 -23.48 104.65 -22.04 103.35 -19.92L102.51 -18.61L105.5 -32.47L96.82 -32.47L89.96 0L98.64 0L101.04 -11.59L103.19 -12.84L107.06 0Z"></path></g><g id="SvgjsG4583" class="text" transform="translate(146.44155207918135, 51.76614658204321) scale(1)" light-content="false" fill="#5f6a72"><path d="M-43.12 -9.97C-43.12 -11.81 -43.54 -13.44 -44.38 -14.86C-45.23 -16.28 -46.52 -17.63 -48.27 -18.92C-49.66 -19.97 -50.61 -20.81 -51.1 -21.44C-51.6 -22.07 -51.85 -22.75 -51.85 -23.48C-51.85 -24.27 -51.59 -24.88 -51.08 -25.3C-50.57 -25.71 -49.84 -25.92 -48.89 -25.92C-47.12 -25.92 -44.96 -25.27 -42.43 -23.96L-39.43 -30.56C-42.26 -32.14 -45.44 -32.94 -48.98 -32.94C-51.17 -32.94 -53.15 -32.51 -54.92 -31.66C-56.69 -30.81 -58.06 -29.61 -59.03 -28.06C-60 -26.51 -60.49 -24.77 -60.49 -22.83C-60.49 -21.1 -60.09 -19.51 -59.31 -18.06C-58.52 -16.61 -57.27 -15.18 -55.53 -13.79C-54.11 -12.61 -53.24 -11.84 -52.91 -11.49C-52.59 -11.15 -52.34 -10.8 -52.16 -10.45C-51.98 -10.1 -51.89 -9.73 -51.89 -9.33C-51.89 -8.48 -52.17 -7.83 -52.74 -7.37C-53.3 -6.91 -54.13 -6.68 -55.22 -6.68C-56.53 -6.68 -57.98 -6.95 -59.59 -7.48C-61.19 -8.02 -62.62 -8.68 -63.86 -9.46L-63.86 -1.69C-62.81 -0.99 -61.56 -0.46 -60.11 -0.1C-58.66 0.26 -57.12 0.44 -55.49 0.44C-51.6 0.44 -48.56 -0.47 -46.38 -2.3C-44.21 -4.13 -43.12 -6.68 -43.12 -9.97ZM-52.8 -35.58L-52.8 -35.07L-46.49 -35.07C-45.03 -35.85 -43.21 -37.01 -41.04 -38.53C-38.87 -40.06 -37.46 -41.22 -36.79 -42.02L-36.79 -42.35L-46.54 -42.35C-48.89 -39.35 -50.98 -37.09 -52.8 -35.58Z M-39.17 0L-19.89 0L-18.38 -7.08L-28.97 -7.08L-23.62 -32.47L-32.3 -32.47Z M4.08 0L5.59 -7.15L-5.01 -7.15L-3.74 -13.28L6.12 -13.28L7.72 -20.32L-2.14 -20.32L-1.1 -25.43L9.49 -25.43L10.94 -32.47L-8.34 -32.47L-15.2 0Z M39.32 -20.19C39.32 -24.1 38.2 -27.12 35.96 -29.26C33.71 -31.4 30.55 -32.47 26.46 -32.47L17.22 -32.47L10.36 0L20.82 0C24.64 0 27.95 -0.81 30.74 -2.42C33.53 -4.03 35.66 -6.36 37.12 -9.41C38.59 -12.45 39.32 -16.04 39.32 -20.19ZM22.13 -7.2L20.6 -7.2L24.42 -25.39L26 -25.39C27.43 -25.39 28.55 -24.91 29.35 -23.95C30.15 -23 30.55 -21.59 30.55 -19.74C30.55 -17.29 30.19 -15.1 29.48 -13.18C28.77 -11.26 27.78 -9.79 26.5 -8.75C25.21 -7.71 23.76 -7.2 22.13 -7.2Z M61.22 0L62.73 -7.08L50.67 -7.08L66.22 -27.03L67.37 -32.47L45.47 -32.47L43.99 -25.39L54.62 -25.39L39.3 -5.37L38.26 0ZM51.67 -35.58L51.67 -35.07L57.98 -35.07C59.44 -35.85 61.26 -37.01 63.43 -38.53C65.6 -40.06 67.02 -41.22 67.68 -42.02L67.68 -42.35L57.93 -42.35C55.58 -39.35 53.49 -37.09 51.67 -35.58Z"></path></g></g></g></svg>